<?xml version="1.0" encoding="iso-8859-1"?>
<!-- Generator: Adobe Illustrator 21.0.0, SVG Export Plug-In . SVG Version: 6.00 Build 0)  -->
<svg class="services__img" height="75" width="75" xmlns="http://www.w3.org/2000/svg" xmlns:xlink="http://www.w3.org/1999/xlink" version="1.1" id="Capa_1" x="0px" y="0px" viewBox="0 0 512 512" style="enable-background:new 0 0 512 512;" xml:space="preserve" width="512" height="512">
<g>
	<path style="fill:#FDE4E4;" d="M436.3,253.9l-73.2,66.899c-33.3,16.5-70.201,24.6-107.1,24.6s-73.801-8.101-107.1-24.6L75.7,254.2   c5.7-12.601,12.001-24.901,18.3-37.5c14.101-27.601,28.801-56.1,38.701-87.301c10.199-35.4,6.599-74.499-9.901-107.8   C120.399,17.1,120.7,11.4,123.401,7.2c2.699-4.499,7.5-7.2,12.9-7.2H376c5.099,0,9.901,2.701,12.9,7.2   c2.701,4.2,2.701,9.901,0.601,14.399c-17.701,35.101-20.4,76-8.101,113.2c9.901,29.401,23.699,56.4,36.899,82.202   C424.6,229.6,430.6,241.899,436.3,253.9z"/>
	<path style="fill:#FCCED3;" d="M436.3,253.9l-73.2,66.899c-33.3,16.5-70.201,24.6-107.1,24.6V0h120c5.099,0,9.901,2.701,12.9,7.2   c2.701,4.2,2.701,9.901,0.601,14.399c-17.701,35.101-20.4,76-8.101,113.2c9.901,29.401,23.699,56.4,36.899,82.202   C424.6,229.6,430.6,241.899,436.3,253.9z"/>
	<path style="fill:#FDE4E4;" d="M45.927,364.241c-3.898,45.959,1.357,93.369,16.069,137.505C64.032,507.869,69.76,512,76.22,512h150   c8.291,0,15.78-6.709,15.78-15V367.522l-105.032-31.752L45.927,364.241z"/>
	<path style="fill:#FCCED3;" d="M466.3,364.55l-61.054-44.648L271,397.478V497c0,8.291,6.709,15,15,15h150   c6.46,0,12.188-4.131,14.224-10.254C464.903,457.709,470.147,410.409,466.3,364.55z"/>
	<path style="fill:#FDD0D0;" d="M271,256c0,8.399-6.599,15-15,15s-15-6.601-15-15c0-8.401,6.599-15,15-15S271,247.599,271,256z"/>
	<path style="fill:#BBDCFF;" d="M86.605,95.395l-30-30c-5.859-5.859-15.352-5.859-21.211,0s-5.859,15.352,0,21.211L39.789,91H15   c-8.291,0-15,6.709-15,15s6.709,15,15,15h24.789l-4.395,4.395c-5.859,5.859-5.859,15.352,0,21.211   c5.859,5.859,15.351,5.86,21.211,0l30-30C92.465,110.746,92.465,101.254,86.605,95.395z"/>
	<path style="fill:#9ABADB;" d="M497,91h-24.789l4.395-4.395c5.859-5.859,5.859-15.352,0-21.211s-15.352-5.859-21.211,0l-30,30   c-5.859,5.859-5.859,15.352,0,21.211l30,30c5.859,5.859,15.351,5.86,21.211,0c5.859-5.859,5.859-15.352,0-21.211L472.211,121H497   c8.291,0,15-6.709,15-15S505.291,91,497,91z"/>
	<path style="fill:#FF641A;" d="M466.3,364.6c-80.4-20.4-131.7,14.099-169.801,51.899c-5.4,5.7-15,9.3-25.499,11.1   c-4.799,0.601-9.901,1.201-15,1.201c-4.799,0-9.901-0.601-14.7-1.201c-10.8-1.8-20.4-5.4-25.8-11.1   C176.8,378.1,125.2,344.2,46,364.3c3.3-39.6,10.499-68.699,29.7-110.099l73.2,36.599c33.3,16.5,70.201,24.6,107.1,24.6   s73.801-8.101,107.1-24.6l73.2-36.899C455.501,295,463.001,324.399,466.3,364.6z"/>
	<path style="fill:#F03800;" d="M466.3,364.6c-80.4-20.4-131.7,14.099-169.801,51.899c-5.4,5.7-15,9.3-25.499,11.1   c-4.799,0.601-9.901,1.201-15,1.201V315.399c36.899,0,73.801-8.101,107.1-24.6l73.2-36.899   C455.501,295,463.001,324.399,466.3,364.6z"/>
	<path style="fill:#FAAAAA;" d="M271,256c0,8.399-6.599,15-15,15v-30C264.401,241,271,247.599,271,256z"/>
</g>















</svg>
