<svg height="75" viewBox="0 0 58 48" width="75" xmlns="http://www.w3.org/2000/svg"><g id="Page-1" fill="none" fill-rule="evenodd"><g id="018---Boiling-Water" fill-rule="nonzero" transform="translate(-1)"><path id="Shape" d="m50 23v-3c0-3.87-8.95-7-20-7s-20 3.13-20 7v21c0 3.87 7.3 7 20 7s20-3.13 20-7z" fill="#95a5a5"/><path id="Shape" d="m23.048 44.611c-.0407707.0001312-.0815119-.0022064-.122-.007-5.792-.7-8.846-2.179-9.7-3.228-.1458939-.1783389-.2257266-.4015879-.226-.632v-1.744c0-.5522847.4477153-1 1-1s1 .4477153 1 1v1.316c.825.617 3.428 1.726 8.168 2.3.5223796.0663978.9037629.5265209.8720985 1.0521505-.0316645.5256296-.4655258.9366416-.9920985.9398495z" fill="#fff"/><path id="Shape" d="m12.35 34.63c-.2716816.8185751-1.0375179 1.3707833-1.9 1.37-.1515448.0031652-.3028462-.0136461-.45-.05-.06447782-.0119668-.12798385-.0286789-.19-.05l-4.85-1.62c-2.69465605-.8965463-4.34082388-3.6156551-3.88604331-6.4188927s2.87615518-4.8624525 5.71604331-4.8611073h3.21v4h-3.21c-.67861747-.0025856-1.29945578.3815581-1.6.99-.22950437.4625817-.24793327 1.0017695-.05054873 1.4789418.19738453.4771724.5913275.8457807 1.08054873 1.0110582l3.78 1.26 1.08.36c1.0468991.3507595 1.614219 1.4809322 1.27 2.53z" fill="#7f8c8d"/><path id="Shape" d="m58.56 31c-.6431311 1.5513846-1.9271346 2.7478424-3.52 3.28l-4.85 1.62c-.0620161.0213211-.1255222.0380332-.19.05-.1471538.0363539-.2984552.0531652-.45.05-.983544.0027163-1.823081-.7100891-1.9799286-1.68105-.1568475-.9709609.4155545-1.9118487 1.3499286-2.21895l1.08-.36 3.78-1.26c.4892212-.1652775.8831642-.5338858 1.0805487-1.0110582.1973846-.4771723.1789557-1.0163601-.0505487-1.4789418-.3005442-.6084419-.9213825-.9925856-1.6-.99h-3.21v-4h3.21c1.9331538-.0014528 3.7393239.9626346 4.8139616 2.5695694 1.0746377 1.6069349 1.2757561 3.6444005.5360384 5.4304306z" fill="#7f8c8d"/><circle id="Oval" cx="27" cy="44" fill="#fff" r="1"/><path id="Shape" d="m50 20c0 1.49-1.33 2.87-3.6 4-3.61-1.81-9.6-3-16.4-3s-12.79 1.19-16.4 3c-2.27-1.13-3.6-2.51-3.6-4 0-3.87 8.95-7 20-7s20 3.13 20 7z" fill="#bdc3c7"/><ellipse id="Oval" cx="30" cy="24" fill="#3b97d3" rx="16.4" ry="3"/><g fill="#e64c3c"><path id="Shape" d="m25 18c-.5522847 0-1-.4477153-1-1 0-.563-.217-.8-.707-1.3-.817898-.6612702-1.2931788-1.6567227-1.2931788-2.7085s.4752808-2.0472298 1.2931788-2.7085c.49-.491.707-.732.707-1.295s-.217-.8-.707-1.291c-.8177149-.66009192-1.2930131-1.65460559-1.2930131-2.7055s.4752982-2.04540808 1.2930131-2.7055c.49-.486.707-.725.707-1.286 0-.55228475.4477153-1 1-1s1 .44771525 1 1c-.0117724 1.04832962-.4847765 2.03823626-1.293 2.706-.49.494-.707.729-.707 1.294s.217.8.707 1.291c.8178063.66068126 1.2930956 1.65566426 1.2930956 2.707 0 1.0513357-.4752893 2.0463187-1.2930956 2.707-.49.491-.707.732-.707 1.3s.217.8.707 1.294c.80635.6670674 1.2790858 1.6545844 1.293 2.701 0 .5522847-.4477153 1-1 1z"/><path id="Shape" d="m31 18c-.5522847 0-1-.4477153-1-1 0-.563-.217-.8-.707-1.3-.817898-.6612702-1.2931788-1.6567227-1.2931788-2.7085s.4752808-2.0472298 1.2931788-2.7085c.49-.491.707-.732.707-1.295s-.217-.8-.707-1.291c-.8177149-.66009192-1.2930131-1.65460559-1.2930131-2.7055s.4752982-2.04540808 1.2930131-2.7055c.49-.486.707-.725.707-1.286 0-.55228475.4477153-1 1-1s1 .44771525 1 1c-.0117724 1.04832962-.4847765 2.03823626-1.293 2.706-.49.494-.707.729-.707 1.294s.217.8.707 1.291c.8178063.66068126 1.2930956 1.65566426 1.2930956 2.707 0 1.0513357-.4752893 2.0463187-1.2930956 2.707-.49.491-.707.732-.707 1.3s.217.8.707 1.294c.80635.6670674 1.2790858 1.6545844 1.293 2.701 0 .5522847-.4477153 1-1 1z"/><path id="Shape" d="m37 18c-.5522847 0-1-.4477153-1-1 0-.563-.217-.8-.707-1.3-.817898-.6612702-1.2931788-1.6567227-1.2931788-2.7085s.4752808-2.0472298 1.2931788-2.7085c.49-.491.707-.732.707-1.295s-.217-.8-.707-1.291c-.8177149-.66009192-1.2930131-1.65460559-1.2930131-2.7055s.4752982-2.04540808 1.2930131-2.7055c.49-.486.707-.725.707-1.286 0-.55228475.4477153-1 1-1s1 .44771525 1 1c-.0117724 1.04832962-.4847765 2.03823626-1.293 2.706-.49.494-.707.729-.707 1.294s.217.8.707 1.291c.8178063.66068126 1.2930956 1.65566426 1.2930956 2.707 0 1.0513357-.4752893 2.0463187-1.2930956 2.707-.49.491-.707.732-.707 1.3s.217.8.707 1.294c.80635.6670674 1.2790858 1.6545844 1.293 2.701 0 .5522847-.4477153 1-1 1z"/></g></g></g></svg>